<svg width="42" height="42" viewBox="0 0 42 42" fill="none" xmlns="http://www.w3.org/2000/svg">
<path d="M17.0101 16.2498C17.5993 14.5184 16.6728 12.6365 14.9411 12.0472C13.2093 11.4579 11.3279 12.3842 10.7387 14.1156C10.1491 15.8483 11.0749 17.7292 12.8069 18.3186C14.539 18.908 16.4205 17.9824 17.0101 16.2498Z" fill="white"/>
<path d="M30.3698 17.9808C28.6384 17.3916 26.7566 18.3178 26.1674 20.0492C25.5778 21.7819 26.5044 23.6624 28.2359 24.2516C29.9676 24.8409 31.8489 23.9159 32.4385 22.1833C33.0277 20.4519 32.1018 18.5702 30.3698 17.9808Z" fill="white"/>
<path d="M25.2673 23.6359C25.1408 23.2931 24.9381 22.8772 24.6949 22.4305C24.1665 20.8839 22.9577 19.5882 21.291 19.021C19.8076 18.5162 18.2604 18.6906 16.9773 19.3707C16.2834 19.6544 15.6527 19.9471 15.2225 20.218L14.9354 20.3966C13.5971 21.228 11.9314 22.2622 11.1115 24.7C10.3504 26.964 11.5654 29.4313 13.82 30.1985C14.4452 30.4128 15.1115 30.4797 15.7669 30.3941C16.4222 30.3085 17.0489 30.0726 17.5981 29.7049C17.809 30.3314 18.1618 30.9008 18.6291 31.3685C19.0964 31.8361 19.6654 32.1895 20.2918 32.4009C22.5455 33.1678 25.0128 31.9539 25.791 29.6954C26.6283 27.2635 25.9388 25.4278 25.3857 23.9528L25.2673 23.6359Z" fill="white"/>
<path d="M22.1898 17.0955C24.0975 17.7447 26.1703 16.7244 26.8195 14.8167C27.4687 12.909 26.4484 10.8361 24.5407 10.1869C22.633 9.53775 20.5601 10.558 19.911 12.4658C19.2618 14.3735 20.282 16.4463 22.1898 17.0955Z" fill="white"/>
</svg>
